<svg id="visual" viewBox="0 0 900 600" width="900" height="600" xmlns="http://www.w3.org/2000/svg" xmlns:xlink="http://www.w3.org/1999/xlink" version="1.1"><path d="M0 125L18.8 127.7C37.7 130.3 75.3 135.7 112.8 135.2C150.3 134.7 187.7 128.3 225.2 128.5C262.7 128.7 300.3 135.3 337.8 133.5C375.3 131.7 412.7 121.3 450.2 121.8C487.7 122.3 525.3 133.7 562.8 138.8C600.3 144 637.7 143 675.2 142.2C712.7 141.3 750.3 140.7 787.8 140.8C825.3 141 862.7 142 881.3 142.5L900 143L900 0L881.3 0C862.7 0 825.3 0 787.8 0C750.3 0 712.7 0 675.2 0C637.7 0 600.3 0 562.8 0C525.3 0 487.7 0 450.2 0C412.7 0 375.3 0 337.8 0C300.3 0 262.7 0 225.2 0C187.7 0 150.3 0 112.8 0C75.3 0 37.7 0 18.8 0L0 0Z" fill="#fbc8d4"></path><path d="M0 107L18.8 103.2C37.7 99.3 75.3 91.7 112.8 91.5C150.3 91.3 187.7 98.7 225.2 99.8C262.7 101 300.3 96 337.8 97.8C375.3 99.7 412.7 108.3 450.2 108.2C487.7 108 525.3 99 562.8 95.5C600.3 92 637.7 94 675.2 96.8C712.7 99.7 750.3 103.3 787.8 103C825.3 102.7 862.7 98.3 881.3 96.2L900 94L900 0L881.3 0C862.7 0 825.3 0 787.8 0C750.3 0 712.7 0 675.2 0C637.7 0 600.3 0 562.8 0C525.3 0 487.7 0 450.2 0C412.7 0 375.3 0 337.8 0C300.3 0 262.7 0 225.2 0C187.7 0 150.3 0 112.8 0C75.3 0 37.7 0 18.8 0L0 0Z" fill="#f3b6d4"></path><path d="M0 72L18.8 74.2C37.7 76.3 75.3 80.7 112.8 80.5C150.3 80.3 187.7 75.7 225.2 71.8C262.7 68 300.3 65 337.8 68C375.3 71 412.7 80 450.2 81.5C487.7 83 525.3 77 562.8 73.2C600.3 69.3 637.7 67.7 675.2 68.5C712.7 69.3 750.3 72.7 787.8 74.3C825.3 76 862.7 76 881.3 76L900 76L900 0L881.3 0C862.7 0 825.3 0 787.8 0C750.3 0 712.7 0 675.2 0C637.7 0 600.3 0 562.8 0C525.3 0 487.7 0 450.2 0C412.7 0 375.3 0 337.8 0C300.3 0 262.7 0 225.2 0C187.7 0 150.3 0 112.8 0C75.3 0 37.7 0 18.8 0L0 0Z" fill="#e2a6db"></path><path d="M0 41L18.8 44.7C37.7 48.3 75.3 55.7 112.8 57C150.3 58.3 187.7 53.7 225.2 51.5C262.7 49.3 300.3 49.7 337.8 50.3C375.3 51 412.7 52 450.2 52.7C487.7 53.3 525.3 53.7 562.8 54C600.3 54.3 637.7 54.7 675.2 52.8C712.7 51 750.3 47 787.8 48.2C825.3 49.3 862.7 55.7 881.3 58.8L900 62L900 0L881.3 0C862.7 0 825.3 0 787.8 0C750.3 0 712.7 0 675.2 0C637.7 0 600.3 0 562.8 0C525.3 0 487.7 0 450.2 0C412.7 0 375.3 0 337.8 0C300.3 0 262.7 0 225.2 0C187.7 0 150.3 0 112.8 0C75.3 0 37.7 0 18.8 0L0 0Z" fill="#c59be5"></path><path d="M0 23L18.8 25.2C37.7 27.3 75.3 31.7 112.8 30.8C150.3 30 187.7 24 225.2 24.7C262.7 25.3 300.3 32.7 337.8 35.5C375.3 38.3 412.7 36.7 450.2 35.8C487.7 35 525.3 35 562.8 34.8C600.3 34.7 637.7 34.3 675.2 33.5C712.7 32.7 750.3 31.3 787.8 32.2C825.3 33 862.7 36 881.3 37.5L900 39L900 0L881.3 0C862.7 0 825.3 0 787.8 0C750.3 0 712.7 0 675.2 0C637.7 0 600.3 0 562.8 0C525.3 0 487.7 0 450.2 0C412.7 0 375.3 0 337.8 0C300.3 0 262.7 0 225.2 0C187.7 0 150.3 0 112.8 0C75.3 0 37.7 0 18.8 0L0 0Z" fill="#9795f0"></path></svg>