<svg id="visual" viewBox="0 0 900 600" width="900" height="600" xmlns="http://www.w3.org/2000/svg" xmlns:xlink="http://www.w3.org/1999/xlink" version="1.1"><path d="M0 262L21.5 251.2C43 240.3 86 218.7 128.8 212.8C171.7 207 214.3 217 257.2 214.2C300 211.3 343 195.7 385.8 199C428.7 202.3 471.3 224.7 514.2 238.8C557 253 600 259 642.8 257.5C685.7 256 728.3 247 771.2 244.5C814 242 857 246 878.5 248L900 250L900 0L878.5 0C857 0 814 0 771.2 0C728.3 0 685.7 0 642.8 0C600 0 557 0 514.2 0C471.3 0 428.7 0 385.8 0C343 0 300 0 257.2 0C214.3 0 171.7 0 128.8 0C86 0 43 0 21.5 0L0 0Z" fill="#fbc8d4"></path><path d="M0 213L21.5 207.3C43 201.7 86 190.3 128.8 182.7C171.7 175 214.3 171 257.2 169.2C300 167.3 343 167.7 385.8 178.3C428.7 189 471.3 210 514.2 212.5C557 215 600 199 642.8 198.5C685.7 198 728.3 213 771.2 208.3C814 203.7 857 179.3 878.5 167.2L900 155L900 0L878.5 0C857 0 814 0 771.2 0C728.3 0 685.7 0 642.8 0C600 0 557 0 514.2 0C471.3 0 428.7 0 385.8 0C343 0 300 0 257.2 0C214.3 0 171.7 0 128.8 0C86 0 43 0 21.5 0L0 0Z" fill="#f3b6d4"></path><path d="M0 110L21.5 117.2C43 124.3 86 138.7 128.8 150.3C171.7 162 214.3 171 257.2 176.3C300 181.7 343 183.3 385.8 178.8C428.7 174.3 471.3 163.7 514.2 156.2C557 148.7 600 144.3 642.8 150.7C685.7 157 728.3 174 771.2 175.7C814 177.3 857 163.7 878.5 156.8L900 150L900 0L878.5 0C857 0 814 0 771.2 0C728.3 0 685.7 0 642.8 0C600 0 557 0 514.2 0C471.3 0 428.7 0 385.8 0C343 0 300 0 257.2 0C214.3 0 171.7 0 128.8 0C86 0 43 0 21.5 0L0 0Z" fill="#e2a6db"></path><path d="M0 92L21.5 95.2C43 98.3 86 104.7 128.8 108.5C171.7 112.3 214.3 113.7 257.2 116C300 118.3 343 121.7 385.8 120.8C428.7 120 471.3 115 514.2 106.5C557 98 600 86 642.8 83.2C685.7 80.3 728.3 86.7 771.2 92C814 97.3 857 101.7 878.5 103.8L900 106L900 0L878.5 0C857 0 814 0 771.2 0C728.3 0 685.7 0 642.8 0C600 0 557 0 514.2 0C471.3 0 428.7 0 385.8 0C343 0 300 0 257.2 0C214.3 0 171.7 0 128.8 0C86 0 43 0 21.5 0L0 0Z" fill="#c59be5"></path><path d="M0 53L21.5 57.3C43 61.7 86 70.3 128.8 73.8C171.7 77.3 214.3 75.7 257.2 68.3C300 61 343 48 385.8 41.5C428.7 35 471.3 35 514.2 38C557 41 600 47 642.8 51.5C685.7 56 728.3 59 771.2 58C814 57 857 52 878.5 49.5L900 47L900 0L878.5 0C857 0 814 0 771.2 0C728.3 0 685.7 0 642.8 0C600 0 557 0 514.2 0C471.3 0 428.7 0 385.8 0C343 0 300 0 257.2 0C214.3 0 171.7 0 128.8 0C86 0 43 0 21.5 0L0 0Z" fill="#9795f0"></path></svg>