<svg id="visual" viewBox="0 0 900 600" width="900" height="600" xmlns="http://www.w3.org/2000/svg" xmlns:xlink="http://www.w3.org/1999/xlink" version="1.1"><path d="M0 373L21.5 378C43 383 86 393 128.8 397C171.7 401 214.3 399 257.2 399.2C300 399.3 343 401.7 385.8 408.5C428.7 415.3 471.3 426.7 514.2 430.5C557 434.3 600 430.7 642.8 417C685.7 403.3 728.3 379.7 771.2 370C814 360.3 857 364.7 878.5 366.8L900 369L900 601L878.5 601C857 601 814 601 771.2 601C728.3 601 685.7 601 642.8 601C600 601 557 601 514.2 601C471.3 601 428.7 601 385.8 601C343 601 300 601 257.2 601C214.3 601 171.7 601 128.8 601C86 601 43 601 21.5 601L0 601Z" fill="#fbc8d4"></path><path d="M0 441L21.5 445C43 449 86 457 128.8 458.2C171.7 459.3 214.3 453.7 257.2 452.7C300 451.7 343 455.3 385.8 447C428.7 438.7 471.3 418.3 514.2 415C557 411.7 600 425.3 642.8 433C685.7 440.7 728.3 442.3 771.2 435C814 427.7 857 411.3 878.5 403.2L900 395L900 601L878.5 601C857 601 814 601 771.2 601C728.3 601 685.7 601 642.8 601C600 601 557 601 514.2 601C471.3 601 428.7 601 385.8 601C343 601 300 601 257.2 601C214.3 601 171.7 601 128.8 601C86 601 43 601 21.5 601L0 601Z" fill="#f3b6d4"></path><path d="M0 477L21.5 470.5C43 464 86 451 128.8 451.7C171.7 452.3 214.3 466.7 257.2 472.3C300 478 343 475 385.8 478.7C428.7 482.3 471.3 492.7 514.2 498C557 503.3 600 503.7 642.8 499.3C685.7 495 728.3 486 771.2 486.8C814 487.7 857 498.3 878.5 503.7L900 509L900 601L878.5 601C857 601 814 601 771.2 601C728.3 601 685.7 601 642.8 601C600 601 557 601 514.2 601C471.3 601 428.7 601 385.8 601C343 601 300 601 257.2 601C214.3 601 171.7 601 128.8 601C86 601 43 601 21.5 601L0 601Z" fill="#e2a6db"></path><path d="M0 541L21.5 533.8C43 526.7 86 512.3 128.8 503.7C171.7 495 214.3 492 257.2 493.7C300 495.3 343 501.7 385.8 502C428.7 502.3 471.3 496.7 514.2 499.8C557 503 600 515 642.8 519.7C685.7 524.3 728.3 521.7 771.2 518.8C814 516 857 513 878.5 511.5L900 510L900 601L878.5 601C857 601 814 601 771.2 601C728.3 601 685.7 601 642.8 601C600 601 557 601 514.2 601C471.3 601 428.7 601 385.8 601C343 601 300 601 257.2 601C214.3 601 171.7 601 128.8 601C86 601 43 601 21.5 601L0 601Z" fill="#c59be5"></path><path d="M0 542L21.5 542.3C43 542.7 86 543.3 128.8 543.8C171.7 544.3 214.3 544.7 257.2 544.5C300 544.3 343 543.7 385.8 545.2C428.7 546.7 471.3 550.3 514.2 551.8C557 553.3 600 552.7 642.8 555.8C685.7 559 728.3 566 771.2 562.2C814 558.3 857 543.7 878.5 536.3L900 529L900 601L878.5 601C857 601 814 601 771.2 601C728.3 601 685.7 601 642.8 601C600 601 557 601 514.2 601C471.3 601 428.7 601 385.8 601C343 601 300 601 257.2 601C214.3 601 171.7 601 128.8 601C86 601 43 601 21.5 601L0 601Z" fill="#9795f0"></path></svg>